<svg width="169" height="28" viewBox="0 0 169 28" fill="none" xmlns="http://www.w3.org/2000/svg">
<path d="M105.525 17.5436C105.525 11.7687 100.843 7.08716 95.0682 7.08716V17.5436H84.6118C84.6118 23.3185 89.2933 28 95.0682 28V17.5436H105.525Z" fill="#30AAFC"/>
<path d="M95.0682 7.08716C89.2933 7.08716 84.6118 11.7687 84.6118 17.5436H95.0682V28C100.843 28 105.525 23.3185 105.525 17.5436H95.0682V7.08716Z" fill="url(#paint0_angular_80_376)" fill-opacity="0.2"/>
<path d="M95.0681 12.3154C92.1806 12.3154 89.8398 14.6562 89.8398 17.5436H95.0681L95.0681 22.7718C97.9555 22.7718 100.296 20.4311 100.296 17.5436H95.0681L95.0681 12.3154Z" fill="url(#paint1_angular_80_376)" fill-opacity="0.2"/>
<path d="M8.70323 27.3366C6.01941 27.3366 3.89792 26.4292 2.33875 24.6144C0.779584 22.7996 0 20.4609 0 17.5981C0 14.7865 0.805144 12.4606 2.41543 10.6202C4.02572 8.7799 6.14721 7.85974 8.7799 7.85974C10.0835 7.85974 11.2465 8.1409 12.2689 8.70323C13.2913 9.26555 14.0581 10.0324 14.5693 11.0036V8.35816H20.397V26.8381H14.5693V24.231C14.0581 25.1512 13.2657 25.9052 12.1922 26.4931C11.1442 27.0554 9.98123 27.3366 8.70323 27.3366ZM10.3902 22.4674C11.796 22.4674 12.8823 22.0073 13.6491 21.0871C14.4159 20.1669 14.7993 19.004 14.7993 17.5981C14.7993 16.2179 14.4159 15.0677 13.6491 14.1475C12.8823 13.2274 11.796 12.7673 10.3902 12.7673C9.06107 12.7673 7.98754 13.2146 7.16962 14.1092C6.37725 15.0038 5.98107 16.1668 5.98107 17.5981C5.98107 19.0295 6.37725 20.2053 7.16962 21.1254C7.98754 22.0201 9.06107 22.4674 10.3902 22.4674Z" fill="#0F172A"/>
<path d="M25.2671 26.8381V0H31.1331V26.8381H25.2671Z" fill="#0F172A"/>
<path d="M35.9754 26.8381V0H41.8414V26.8381H35.9754Z" fill="#0F172A"/>
<path d="M59.8727 0H65.7388V26.8381H59.911V24.231C59.3998 25.1512 58.6075 25.9052 57.534 26.4931C56.486 27.0554 55.323 27.3366 54.045 27.3366C51.3612 27.3366 49.2397 26.4292 47.6805 24.6144C46.1214 22.7996 45.3418 20.4609 45.3418 17.5981C45.3418 14.7865 46.1469 12.4606 47.7572 10.6202C49.3675 8.7799 51.489 7.85974 54.1217 7.85974C55.4252 7.85974 56.5882 8.1409 57.6106 8.70323C58.633 9.26555 59.3998 10.0324 59.911 11.0036V9.43169H59.8727V0ZM55.732 22.4674C57.1378 22.4674 58.2241 22.0073 58.9909 21.0871C59.7577 20.1669 60.1411 19.004 60.1411 17.5981C60.1411 16.2179 59.7577 15.0677 58.9909 14.1475C58.2241 13.2274 57.1378 12.7673 55.732 12.7673C54.4028 12.7673 53.3293 13.2146 52.5114 14.1092C51.719 15.0038 51.3228 16.1668 51.3228 17.5981C51.3228 19.0295 51.719 20.2053 52.5114 21.1254C53.3293 22.0201 54.4028 22.4674 55.732 22.4674Z" fill="#0F172A"/>
<path d="M70.6089 26.8381V8.35816H76.4749V12.2305C76.7816 10.9014 77.4078 9.87899 78.3536 9.16331C79.3249 8.42206 80.3984 8.05144 81.5741 8.05144C82.1876 8.05144 82.6988 8.10256 83.1077 8.2048V13.6491C82.4176 13.5724 81.8298 13.5341 81.3441 13.5341C78.098 13.5341 76.4749 15.5917 76.4749 19.7069V26.8381H70.6089Z" fill="#0F172A"/>
<path d="M108.575 26.8381V8.35816H114.441V11.042C115.54 8.92049 117.533 7.85974 120.422 7.85974C124.92 7.85974 127.17 10.3774 127.17 15.4128V26.8381H121.265V17.3298C121.265 15.745 121.01 14.5948 120.498 13.8791C120.013 13.1635 119.182 12.8056 118.006 12.8056C115.629 12.8056 114.441 14.2626 114.441 17.1764V26.8381H108.575Z" fill="#0F172A"/>
<path d="M150.037 16.6396C150.037 17.4064 149.985 18.2627 149.883 19.2084H136.234C136.285 20.4098 136.694 21.3427 137.461 22.0073C138.228 22.6718 139.263 23.0041 140.567 23.0041C142.356 23.0041 143.506 22.429 144.017 21.2788H149.768C149.487 23.0936 148.49 24.5761 146.778 25.7263C145.091 26.8509 143.02 27.4132 140.567 27.4132C137.423 27.4132 134.943 26.5442 133.129 24.8061C131.314 23.068 130.406 20.6654 130.406 17.5981C130.406 14.5821 131.314 12.205 133.129 10.4669C134.943 8.70322 137.359 7.8214 140.375 7.8214C143.238 7.8214 145.564 8.63932 147.353 10.2752C149.142 11.911 150.037 14.0325 150.037 16.6396ZM136.234 15.5661H144.247C144.222 14.3392 143.877 13.3935 143.212 12.7289C142.547 12.0644 141.589 11.7321 140.336 11.7321C139.084 11.7321 138.087 12.0899 137.346 12.8056C136.63 13.4957 136.26 14.4159 136.234 15.5661Z" fill="#0F172A"/>
<path d="M160.867 27.4132C158.209 27.4132 156.087 26.8381 154.502 25.6879C152.918 24.5377 152.125 23.068 152.125 21.2788H157.953C157.953 21.9178 158.234 22.4418 158.796 22.8508C159.359 23.2597 160.087 23.4642 160.982 23.4642C161.621 23.4642 162.132 23.3108 162.515 23.0041C162.924 22.6974 163.129 22.2757 163.129 21.7389C163.129 20.8954 162.682 20.3714 161.787 20.1669L157.263 19.0167C155.755 18.6333 154.605 17.9816 153.812 17.0614C153.02 16.1412 152.624 15.0166 152.624 13.6874C152.624 11.9494 153.339 10.5436 154.771 9.47003C156.202 8.37094 158.119 7.8214 160.522 7.8214C163.18 7.8214 165.212 8.3326 166.618 9.35501C168.049 10.3774 168.765 11.7832 168.765 13.5724H162.975C162.975 12.9334 162.745 12.435 162.285 12.0772C161.851 11.7193 161.237 11.5404 160.445 11.5404C159.806 11.5404 159.295 11.681 158.911 11.9621C158.528 12.2433 158.336 12.6139 158.336 13.074C158.336 13.8919 158.86 14.4415 159.908 14.7226L164.279 15.9112C165.736 16.2946 166.873 16.9336 167.691 17.8282C168.535 18.6972 168.957 19.7708 168.957 21.0488C168.957 22.9658 168.228 24.5122 166.771 25.6879C165.34 26.8381 163.372 27.4132 160.867 27.4132Z" fill="#0F172A"/>
<defs>
<radialGradient id="paint0_angular_80_376" cx="0" cy="0" r="1" gradientUnits="userSpaceOnUse" gradientTransform="translate(95.0682 17.5436) scale(10.4564)">
<stop offset="1.724e-05" stop-color="#33B1FF"/>
<stop offset="0.24997" stop-color="#33B1FF" stop-opacity="0.25"/>
<stop offset="0.499926" stop-color="#33B1FF"/>
<stop offset="0.749939" stop-color="#33B1FF" stop-opacity="0.25"/>
</radialGradient>
<radialGradient id="paint1_angular_80_376" cx="0" cy="0" r="1" gradientUnits="userSpaceOnUse" gradientTransform="translate(95.0681 17.5436) scale(5.22821)">
<stop offset="1.724e-05" stop-color="#33B1FF"/>
<stop offset="0.24997" stop-color="#33B1FF" stop-opacity="0.25"/>
<stop offset="0.499926" stop-color="#33B1FF"/>
<stop offset="0.749939" stop-color="#33B1FF" stop-opacity="0.25"/>
</radialGradient>
</defs>
</svg>
